<?xml version="1.0" standalone="no"?>
<!DOCTYPE svg PUBLIC "-//W3C//DTD SVG 20010904//EN"
 "http://www.w3.org/TR/2001/REC-SVG-20010904/DTD/svg10.dtd">
<svg version="1.0" xmlns="http://www.w3.org/2000/svg"
 width="500.000000pt" height="500.000000pt" viewBox="0 0 500.000000 500.000000"
 preserveAspectRatio="xMidYMid meet">

<g transform="translate(0.000000,500.000000) scale(0.100000,-0.100000)"
fill="#000000" stroke="none">
<path d="M2246 4989 c-10 -6 -56 -14 -102 -17 -74 -4 -85 -8 -99 -28 -11 -17
-25 -24 -48 -24 -39 0 -125 -39 -158 -71 -13 -13 -49 -42 -79 -63 -57 -41 -97
-84 -92 -100 2 -5 -10 -23 -25 -40 -28 -31 -57 -84 -66 -121 -3 -11 -8 -28
-12 -37 -5 -14 -2 -18 14 -18 13 0 19 -5 15 -14 -3 -8 1 -25 10 -38 9 -13 17
-54 19 -98 2 -41 9 -109 15 -150 6 -41 13 -124 16 -185 9 -198 7 -199 35 28
14 110 24 140 76 217 65 97 199 220 241 220 7 0 14 4 14 8 0 15 77 52 94 46
10 -4 16 -1 16 7 0 11 2 11 9 0 8 -13 17 -13 68 -1 32 8 65 14 73 15 8 0 20 3
25 7 6 4 17 3 25 -2 7 -5 21 -3 31 3 13 8 24 8 41 -1 23 -13 101 -23 193 -26
33 0 62 -9 85 -24 19 -12 44 -25 55 -28 46 -12 100 -124 61 -124 -18 0 22 -86
53 -114 11 -11 21 -23 21 -28 0 -5 11 -24 24 -41 17 -24 32 -74 56 -192 30
-148 32 -170 27 -300 -4 -121 -9 -148 -31 -200 -14 -33 -25 -57 -26 -53 0 5
-11 -2 -25 -14 -18 -15 -25 -32 -25 -57 0 -26 -3 -32 -10 -21 -8 13 -9 13 -13
0 -3 -8 -11 -37 -19 -65 -9 -27 -24 -54 -34 -60 -10 -5 -21 -12 -24 -15 -3 -3
-14 -7 -25 -8 -11 -2 -30 -15 -42 -28 -26 -29 -49 -22 -78 22 -16 24 -16 29
-1 63 26 59 19 96 -26 137 -21 19 -43 32 -49 28 -5 -3 -21 1 -34 10 -13 9 -33
16 -45 16 -11 0 -20 7 -20 15 0 8 -9 15 -19 15 -11 0 -21 5 -23 12 -5 14 -105
18 -130 6 -9 -4 -19 -4 -22 1 -3 4 -24 11 -46 15 -55 9 -50 26 8 26 42 0 45 2
26 13 -12 6 -30 17 -41 24 -16 10 -26 8 -52 -8 -32 -19 -32 -21 -15 -34 11 -8
14 -15 7 -15 -12 0 -38 -19 -72 -51 -9 -8 -35 -21 -58 -27 -58 -17 -103 -61
-104 -104 -1 -18 -3 -43 -4 -56 -1 -12 2 -25 7 -28 4 -3 5 -10 2 -16 -4 -6 12
0 35 12 24 14 40 30 39 39 -2 8 5 17 16 19 13 3 16 0 10 -10 -6 -10 -5 -11 7
-2 13 11 58 21 122 28 15 1 30 6 34 9 3 4 16 7 27 7 48 1 -18 22 -88 29 l-71
6 28 19 c40 27 111 36 243 31 119 -5 137 -10 168 -53 19 -25 19 -25 0 -18 -31
13 -66 16 -112 10 -46 -7 -54 -29 -9 -29 14 0 28 -3 32 -7 4 -4 13 -4 20 -2 7
3 15 -2 19 -11 5 -13 14 -15 44 -10 29 5 44 2 61 -12 32 -26 38 -92 11 -123
-11 -13 -20 -27 -20 -32 0 -5 -9 -18 -20 -30 -10 -12 -17 -25 -14 -30 3 -4 -5
-8 -16 -8 -16 0 -20 -5 -16 -15 3 -10 -1 -16 -12 -17 -9 0 -24 -2 -32 -2 -8
-1 -18 3 -22 9 -5 7 -11 7 -15 0 -14 -18 -43 -17 -43 2 0 15 -2 16 -10 3 -9
-13 -12 -13 -24 3 -12 15 -14 16 -20 2 -3 -8 -11 -15 -18 -15 -9 0 -9 3 0 12
15 15 16 32 1 23 -7 -5 -9 3 -7 21 2 20 8 29 21 28 10 -1 17 5 17 15 1 23 21
47 48 55 32 11 27 23 -14 36 -31 11 -162 16 -170 7 -2 -2 -1 -13 3 -26 4 -17
11 -22 29 -18 24 4 41 -21 35 -51 -1 -8 3 -20 9 -27 9 -11 2 -20 -36 -44 -31
-19 -52 -26 -59 -21 -7 6 -16 5 -23 -2 -9 -9 -12 -8 -12 4 0 12 -9 16 -31 16
-32 -1 -49 14 -49 45 0 9 -6 17 -14 17 -9 0 -13 9 -12 24 3 20 -4 28 -36 42
-38 17 -39 17 -54 -5 -13 -18 -18 -20 -31 -10 -12 10 -16 10 -24 -2 -5 -8 -7
-20 -4 -28 4 -10 -1 -9 -20 3 -14 9 -25 13 -26 9 0 -5 -14 19 -29 51 -16 33
-27 62 -24 65 3 3 9 -1 14 -9 8 -12 10 -10 10 9 0 16 -4 21 -14 18 -11 -4 -13
-1 -9 11 6 15 5 15 -10 3 -16 -13 -17 -12 -7 13 13 36 13 36 -7 29 -15 -6 -16
-4 -5 9 10 13 9 16 -8 21 -11 3 -17 1 -14 -4 3 -6 0 -16 -6 -24 -10 -12 -9
-15 4 -15 9 0 16 -5 16 -11 0 -5 -4 -8 -9 -5 -5 3 -8 -5 -7 -19 1 -17 5 -23
15 -20 11 4 12 3 1 -10 -19 -23 -33 -18 -26 11 4 15 3 23 -3 20 -5 -3 -12 2
-15 11 -13 32 -28 238 -22 289 3 29 3 80 -1 115 -7 64 -7 64 -14 24 -5 -22 -8
-76 -9 -120 0 -44 -5 -99 -9 -123 -5 -23 -5 -44 -1 -47 4 -2 10 -35 13 -72 13
-136 70 -275 124 -304 38 -20 40 -50 6 -79 -18 -14 -55 -73 -86 -135 -84 -168
-101 -183 -287 -246 -85 -28 -184 -63 -220 -76 -36 -14 -87 -31 -115 -38 -65
-17 -299 -116 -394 -166 -41 -21 -80 -39 -87 -39 -29 0 -84 -35 -93 -59 -5
-14 -21 -55 -34 -91 -13 -36 -35 -86 -47 -110 -38 -74 -106 -262 -129 -356
-13 -49 -33 -129 -46 -179 -29 -114 -65 -270 -105 -455 -16 -80 -37 -176 -46
-215 -70 -309 -74 -339 -74 -572 l0 -223 390 0 390 0 0 88 c0 85 1 91 46 176
43 82 93 243 95 305 1 25 1 24 16 -9 12 -28 14 -50 7 -110 -5 -41 -9 -140 -9
-220 1 -134 3 -148 25 -188 l24 -42 1769 0 1769 0 -5 148 c-3 90 -13 186 -25
247 -78 381 -123 626 -142 785 -17 143 -84 416 -161 654 -10 33 -19 69 -19 81
0 30 -57 166 -79 188 -32 32 -391 214 -513 261 -35 13 -110 43 -168 66 -58 23
-148 59 -200 80 -216 87 -211 85 -235 132 -85 170 -117 228 -124 228 -5 0 -11
-35 -15 -77 -13 -150 -27 -205 -81 -318 -87 -182 -115 -246 -115 -267 0 -12
-16 -38 -35 -60 -23 -25 -34 -45 -30 -57 5 -18 -38 -65 -50 -53 -3 4 -3 0 0
-9 3 -10 -16 -35 -57 -74 -35 -33 -66 -64 -68 -70 -3 -5 -8 -9 -12 -8 -4 2 -4
-5 -1 -14 4 -9 2 -14 -4 -10 -11 7 -44 -28 -35 -38 4 -4 1 -5 -7 -3 -8 2 -29
-17 -49 -42 -19 -25 -39 -45 -45 -45 -5 0 -22 24 -38 53 -35 66 -106 165 -153
214 -20 20 -36 40 -36 44 0 4 -24 32 -52 63 -29 31 -66 79 -83 106 -29 50 -61
166 -51 191 6 15 61 12 61 -4 0 -24 14 -23 21 2 7 30 8 30 34 14 29 -19 35 -3
11 35 -11 19 -21 43 -22 53 0 11 -14 39 -30 64 -16 25 -43 73 -59 107 -26 54
-30 73 -29 140 0 43 4 100 7 126 l7 48 42 -43 c23 -24 59 -61 80 -84 27 -28
55 -46 93 -58 30 -10 65 -22 77 -28 12 -6 28 -8 37 -5 8 3 17 1 19 -6 3 -9 9
-9 24 0 11 6 24 8 29 3 5 -4 34 -4 64 1 37 6 56 5 59 -2 2 -6 11 -3 22 7 15
14 21 14 34 4 17 -14 60 -6 82 15 16 17 68 21 58 5 -3 -5 1 -10 10 -10 9 0 19
9 22 20 3 11 16 23 29 26 13 3 24 12 24 19 0 22 70 82 127 109 28 15 55 31 58
36 4 6 10 8 15 5 4 -3 11 6 14 19 3 14 16 37 29 53 39 48 78 121 66 125 -8 3
-6 23 6 68 28 105 35 142 40 205 8 105 8 268 1 320 -7 47 -5 54 23 89 29 37
31 43 31 128 0 81 2 91 24 111 13 13 32 47 42 77 16 48 19 52 24 30 l6 -25 7
25 c4 14 7 48 8 75 1 40 3 45 9 25 8 -24 8 -23 9 8 1 44 -18 123 -35 143 -8 8
-14 21 -14 27 0 6 -6 15 -13 19 -8 4 -27 35 -42 67 -19 39 -40 65 -62 78 -18
11 -33 27 -33 35 0 47 -130 143 -195 143 -13 0 -38 13 -56 30 -62 56 -136 84
-309 115 -99 18 -148 19 -174 4z m775 -348 c28 -23 20 -38 -10 -19 -22 13 -36
38 -22 38 5 0 19 -9 32 -19z m-1181 -2441 c0 -5 -4 -10 -10 -10 -5 0 -10 5
-10 10 0 6 5 10 10 10 6 0 10 -4 10 -10z m474 -1335 c3 -8 1 -17 -4 -20 -6 -4
-10 1 -10 9 0 10 -6 13 -15 10 -11 -5 -13 -2 -9 9 6 18 30 12 38 -8z m-54 -40
c14 -19 14 -19 -2 -6 -10 7 -18 18 -18 24 0 6 1 8 3 6 1 -2 9 -13 17 -24z
m1395 -326 c4 -17 4 -46 0 -66 -9 -47 -65 -216 -76 -228 -12 -12 -12 84 0 121
6 16 12 45 15 64 16 125 46 178 61 109z m-1360 -448 c3 -5 1 -12 -5 -16 -5 -3
-10 1 -10 9 0 18 6 21 15 7z"/>
<path d="M2480 4108 c-37 -22 -43 -34 -30 -57 9 -17 6 -23 -15 -37 -28 -18
-38 -81 -11 -71 12 5 14 -3 10 -38 -4 -39 -1 -46 22 -62 27 -17 138 -27 128
-11 -3 5 -11 5 -17 1 -7 -3 -3 3 7 15 11 12 27 22 36 22 19 0 44 46 34 62 -4
6 1 8 11 6 10 -1 23 -11 29 -21 9 -14 7 -20 -6 -28 -10 -6 -18 -17 -18 -26 0
-13 3 -13 15 -3 9 7 18 10 22 6 4 -3 -2 -13 -13 -22 -18 -15 -18 -15 3 -5 12
6 24 19 28 30 3 10 15 21 27 24 14 4 19 11 14 22 -3 9 -6 22 -6 29 0 27 -73
65 -137 72 -66 7 -102 29 -67 40 11 3 29 10 42 15 37 15 91 10 155 -12 60 -21
88 -20 45 1 -12 7 -34 23 -48 36 -22 20 -37 23 -129 26 -84 2 -109 0 -131 -14z
m165 -128 c7 -12 -22 -12 -50 0 -17 7 -15 9 12 9 17 1 35 -3 38 -9z m-115 -59
c0 -11 5 -23 10 -26 6 -3 10 -12 10 -20 0 -14 -1 -14 -80 12 -12 3 -9 10 13
29 34 29 47 30 47 5z"/>
<path d="M1819 4091 c-50 -42 -45 -85 7 -46 36 27 184 14 184 -17 0 -10 -7
-12 -89 -29 -45 -9 -70 -20 -87 -38 -28 -30 -31 -51 -7 -51 13 0 14 -3 5 -12
-18 -18 -15 -30 6 -20 32 17 112 -30 82 -48 -17 -11 41 -29 73 -23 25 5 39 33
17 33 -6 0 1 12 15 27 14 15 25 38 25 50 0 29 4 29 47 -4 l35 -27 -33 -13 -34
-13 45 5 45 6 -40 -40 c-46 -48 -34 -54 21 -10 62 49 69 133 15 179 -16 14
-32 34 -35 46 -13 44 -54 60 -163 66 -99 6 -102 5 -134 -21z m274 -129 c20 -9
37 -22 37 -29 0 -8 7 -16 15 -19 8 -4 15 -13 15 -20 0 -10 -9 -6 -27 11 -37
35 -96 65 -130 66 -24 0 -25 2 -8 8 23 9 45 5 98 -17z m-168 -2 c-3 -5 -14
-10 -23 -10 -15 0 -15 2 -2 10 20 13 33 13 25 0z m20 -30 c-3 -11 1 -30 11
-45 15 -22 15 -25 1 -25 -9 0 -31 8 -50 17 l-34 18 35 27 c41 33 45 34 37 8z"/>
<path d="M2415 4070 c-3 -5 -1 -10 4 -10 6 0 11 5 11 10 0 6 -2 10 -4 10 -3 0
-8 -4 -11 -10z"/>
<path d="M2130 4035 c0 -8 7 -15 15 -15 8 0 15 7 15 15 0 8 -7 15 -15 15 -8 0
-15 -7 -15 -15z"/>
<path d="M1603 3848 c-8 -14 -12 -212 -5 -270 9 -71 21 -27 15 55 -3 54 0 102
9 142 8 34 13 66 10 73 -5 16 -19 15 -29 0z"/>
<path d="M2630 3830 c-12 -8 -11 -10 8 -10 12 0 22 5 22 10 0 13 -11 13 -30 0z"/>
<path d="M2054 3574 c-5 -19 -1 -31 16 -47 20 -19 22 -19 16 -4 -3 10 -6 32
-6 48 0 36 -17 38 -26 3z"/>
<path d="M2364 3517 c22 -14 47 -22 55 -19 11 4 7 9 -14 18 -65 26 -81 26 -41
1z"/>
<path d="M2780 3270 c-8 -5 -11 -12 -7 -16 4 -4 13 -2 19 4 15 15 7 24 -12 12z"/>
</g>
</svg>
